# xmcd CD database file
#
# Track frame offsets:
#	150
#	13130
#	28975
#	40497
#	63717
#	88750
#	107640
#	133910
#
# Disc length: 1988 seconds
#
# Revision: 0
# Processed by: cddbd v1.5.2PL0 Copyright (c) Steve Scherf et al.
# Submitted via: CDex 1.51
#
DISCID=7507c208
DTITLE=Danny Family - Look Away Little Girl
DYEAR=2007
DGENRE=Country
TTITLE0=How Long Can I Keep On Dropping Out?
TTITLE1=Whiskermouth
TTITLE2=To All My Friends
TTITLE3=The Man Underneath the Bed
TTITLE4=Look Away Little Girl
TTITLE5=Caroline
TTITLE6=I Deny
TTITLE7=A Shot of Something
EXTD=YEAR: 2007
EXTT0=
EXTT1=
EXTT2=
EXTT3=
EXTT4=
EXTT5=
EXTT6=
EXTT7=
PLAYORDER=
